<?xml version="1.0" encoding="utf-8"?>
<!-- Generator: Adobe Illustrator 23.0.4, SVG Export Plug-In . SVG Version: 6.00 Build 0)  -->
<svg version="1.1" id="Layer_1" xmlns:sketch="http://www.bohemiancoding.com/sketch/ns"
	 xmlns="http://www.w3.org/2000/svg" xmlns:xlink="http://www.w3.org/1999/xlink" x="0px" y="0px" viewBox="0 0 20 20"
	 style="enable-background:new 0 0 20 20;" xml:space="preserve">
<style type="text/css">
	.st0{fill-rule:evenodd;clip-rule:evenodd;}
</style>
<title></title>
<desc></desc>
<g id="Page-1">
	<g id="Core" transform="translate(-212.000000, -422.000000)">
		<g id="shopping-cart" transform="translate(212.000000, 422.000000)">
			<path id="Shape" class="st0" d="M6.6,15.1c-0.93,0-1.7,0.76-1.7,1.7c0,0.94,0.76,1.7,1.7,1.7s1.7-0.76,1.7-1.7
				C8.3,15.86,7.53,15.1,6.6,15.1L6.6,15.1z M1.5,1.5v1.7h1.7l3.06,6.46L5.07,11.7c-0.08,0.26-0.17,0.6-0.17,0.85
				c0,0.94,0.76,1.7,1.7,1.7h10.2v-1.7H6.94c-0.09,0-0.17-0.09-0.17-0.17V12.3l0.76-1.44h6.29c0.68,0,1.19-0.34,1.45-0.85l3.06-5.53
				C18.5,4.3,18.5,4.22,18.5,4.05c0-0.51-0.34-0.85-0.85-0.85H5.07L4.3,1.5H1.5L1.5,1.5z M15.1,15.1c-0.94,0-1.7,0.76-1.7,1.7
				c0,0.94,0.77,1.7,1.7,1.7c0.93,0,1.7-0.76,1.7-1.7C16.8,15.86,16.03,15.1,15.1,15.1L15.1,15.1z"/>
		</g>
	</g>
</g>
</svg>
