<?xml version="1.0" encoding="utf-8"?>
<!-- Generator: Adobe Illustrator 23.0.4, SVG Export Plug-In . SVG Version: 6.00 Build 0)  -->
<svg version="1.1" id="Layer_1" xmlns="http://www.w3.org/2000/svg" xmlns:xlink="http://www.w3.org/1999/xlink" x="0px" y="0px"
	 viewBox="0 0 500 300" style="enable-background:new 0 0 500 300;" xml:space="preserve">
<style type="text/css">
	.st0{fill:#2F5A75;}
</style>
<g>
	<path class="st0" d="M20.6,209.2c-4.3-3.1-7-8.5-8.1-16.1c-0.9-6.5-0.6-13.8,0.8-21.9c1.5-8.1,4.6-15.4,9.6-21.9
		c4.9-6.5,11.8-10.3,20.6-11.5c10.3-1.4,16.1,2.4,17.3,11.4c0.7,5.2-0.1,10.3-2.5,15.1s-5.9,8.9-10.5,12.3s-9.7,5.6-15.2,6.8
		c0.1,2.1,0.2,3.5,0.3,4.3c1.1,7.8,4.5,11.3,10.3,10.5c2.6-0.4,5.3-1.5,8.1-3.3s5.3-4,7.4-6.5c-0.6,14.2-7.8,22.3-21.4,24.2
		C30.5,213.3,24.9,212.2,20.6,209.2z M42.2,171.5c2.8-2.7,5-5.9,6.4-9.7s1.9-7.6,1.4-11.4c-0.5-3.8-2-5.6-4.3-5.3
		c-3.3,0.5-6.1,3.9-8.5,10.3c-2.4,6.4-3.9,13.4-4.5,21C36.2,175.8,39.4,174.1,42.2,171.5z"/>
	<path class="st0" d="M90.4,106.4c-6.3,3.4-10.9,8.1-13.8,13.9s-3.9,12.5-2.8,20.2c0.5,3.5,1.1,5.8,2,7.1c0.8,1.3,1.3,2,1.3,2.2
		c-5.1,0.7-9,0.2-11.7-1.6c-2.8-1.8-4.5-5.1-5.2-10c-0.8-6,0.8-12.2,5-18.5c4.1-6.3,9.8-11.8,17-16.4s14.6-7.4,22.3-8.4
		c1.3-0.2,3.2-0.3,5.7-0.5l13.2,86.2L141,90.5l9.8-1.4l-24.6,110.1L106,202L90.4,106.4z"/>
	<path class="st0" d="M157.8,191.4c-3.2-2.4-5.1-6.5-5.9-12.1c-0.3-2.3-0.4-5.4-0.1-9.3l3.3-46.4l20.2-2.8l-3.5,49.2
		c-0.2,1.5-0.2,3,0.1,4.6c0.3,1.9,0.9,3.1,1.9,3.8s2.5,0.9,4.6,0.6c2.7-0.4,5.1-1.9,7.1-4.5s3.3-5.8,3.8-9.6l5.9-0.8
		c-2.1,10.6-5.6,18.1-10.5,22.4c-4.9,4.4-10.1,6.9-15.4,7.6C164.7,194.8,160.9,193.9,157.8,191.4z M159.6,112
		c-2.5-1.9-3.9-4.3-4.3-7.4c-0.4-3.1,0.3-5.9,2.1-8.4c1.9-2.5,4.3-4,7.4-4.4c3.1-0.4,5.9,0.3,8.4,2.2s4,4.4,4.4,7.5
		s-0.3,5.9-2.2,8.3c-1.9,2.5-4.4,3.9-7.5,4.3C164.8,114.6,162.1,113.9,159.6,112z"/>
	<path class="st0" d="M230.4,181.1c-3.1-2.7-4.9-6.3-5.6-10.8c-0.3-2-0.3-4.2-0.2-6.8c0.1-2.5,0.3-5,0.5-7.4s0.3-4,0.4-4.6
		c0.3-3.4,0.6-6.7,0.8-10s0.2-5.9-0.1-7.9c-0.7-4.8-2.7-6.9-6-6.5c-2.4,0.3-4.4,1.8-6,4.5c-1.5,2.6-2.6,6-3.2,10l-3.3,46.4
		l-20.2,2.8l5.2-72.3l20.2-2.8l-0.5,7.5c4-5.9,9.1-9.3,15.4-10.1c4.8-0.7,8.7,0.1,11.9,2.4c3.2,2.2,5.1,6,5.9,11.4
		c0.4,2.7,0.5,5.8,0.3,9.2s-0.6,7.6-1.1,12.5c-0.4,3-0.6,5.9-0.9,8.8c-0.2,2.8-0.2,5.1,0,6.7c0.3,1.9,0.9,3.3,1.9,4.2
		s2.5,1.2,4.6,0.9c2.8-0.4,4.9-1.7,6.3-3.9s2.7-5.6,3.8-10l5.9-0.8c-2,10.8-5.1,18.2-9.2,22.4c-4.1,4.1-8.5,6.5-13.4,7.2
		C237.9,184.7,233.5,183.7,230.4,181.1z"/>
	<path class="st0" d="M266.2,176.5c-3.2-2.4-5.1-6.5-5.9-12.1c-0.3-2.3-0.4-5.4-0.1-9.3l3-40.6l-4.6,0.6l0.3-5.8l4.6-0.6l1.5-20
		l20.4-5.7l-1.7,22.9l8.4-1.2l-0.3,5.8l-8.4,1.2l-3.2,43.4c-0.2,1.5-0.2,3,0.1,4.6c0.3,1.9,0.9,3.1,1.9,3.8s2.5,0.9,4.6,0.6
		c2.7-0.4,5.1-1.9,7.1-4.5s3.3-5.8,3.8-9.6l5.9-0.8c-2.1,10.6-5.6,18.1-10.5,22.4c-4.9,4.4-10.1,6.9-15.4,7.6
		C273.2,179.8,269.4,178.9,266.2,176.5z"/>
	<path class="st0" d="M304.1,170c-4.1-3.2-6.6-8.6-7.7-16.4c-1-6.9-0.6-14.4,1.1-22.4s4.9-15,9.7-21.1c4.7-6,10.9-9.6,18.5-10.6
		c3.8-0.5,6.8-0.3,8.8,0.8c2.1,1.1,3.2,2.7,3.5,4.8l0.1,1l0.5-7.7l20.2-2.8l-3.5,49.2c-0.2,1.5-0.2,3,0.1,4.6c0.6,4,2.8,5.8,6.6,5.2
		c2.6-0.4,4.7-1.9,6.3-4.6c1.6-2.7,2.7-6.1,3.2-10.2l5.9-0.8c-2.1,10.6-5.4,18-10,22.4c-4.6,4.3-9.5,6.8-14.6,7.5
		c-3.9,0.5-7.2-0.1-9.9-2c-2.7-1.9-4.6-4.9-5.6-9c-2.2,4.2-4.8,7.7-7.8,10.6c-3,2.8-6.8,4.6-11.4,5.2
		C312.8,174.3,308.1,173.1,304.1,170z M331.9,154.5c2-2.5,3.1-5.8,3.5-9.7l2.4-32.7c-0.2-1.2-0.8-2.3-1.9-3.4
		c-1.1-1-2.6-1.4-4.6-1.2c-3.7,0.5-6.8,3.2-9.2,7.9c-2.4,4.8-4,10.3-4.9,16.7c-0.8,6.4-0.9,11.9-0.3,16.6s1.7,7.6,3.3,8.7
		c1.5,1.1,3.3,1.6,5.3,1.3C327.8,158.4,329.9,157,331.9,154.5z"/>
	<path class="st0" d="M393.1,194.6c-3.3-1.9-5.3-5.1-5.9-9.5c-0.7-5.3,0.8-9.9,4.7-13.7c3.9-3.8,9-7.3,15.3-10.3l0.7-7.7
		c-4.1,5.8-9.3,9.2-15.8,10.1c-5.3,0.7-10-0.5-14.1-3.6c-4.1-3.2-6.6-8.6-7.7-16.4c-1-6.9-0.6-14.4,1.1-22.4s4.9-15,9.7-21.1
		c4.7-6,10.9-9.6,18.5-10.6c3.8-0.5,6.8-0.3,8.8,0.8c2.1,1.1,3.2,2.7,3.5,4.8l0.1,0.8l0.5-7.5l20.2-2.8l-4.9,67.1
		c4.3-2.1,7.6-4.9,9.9-8.2c2.3-3.4,4-8.1,5-14.3l5.9-0.8c-1.4,8.7-4,15.3-7.7,19.8c-3.8,4.5-8.3,7.8-13.5,10l-0.7,10.4
		c-0.6,9.3-3,16-7.1,20.1s-9.1,6.5-14.9,7.3C400.3,197.2,396.4,196.5,393.1,194.6z M405.5,144.7c2-2.3,3.2-5.2,3.5-8.6l2.6-34.3
		c-0.2-1.1-0.8-2.2-1.9-3.2s-2.6-1.4-4.6-1.2c-3.7,0.5-6.8,3.2-9.2,7.9c-2.4,4.8-4,10.3-4.9,16.7c-0.8,6.4-0.9,11.9-0.3,16.6
		c0.6,4.7,1.7,7.6,3.3,8.7c1.5,1.1,3.3,1.6,5.3,1.3C401.5,148.2,403.5,146.9,405.5,144.7z M404.3,182.2c1.2-2.4,1.9-5.6,2.2-9.8
		l0.3-4.2c-8.7,4.6-12.8,9.3-12.1,13.8c0.2,1.2,0.7,2.2,1.7,3.1c1,0.8,2.2,1.1,3.7,0.9C401.7,185.8,403.1,184.6,404.3,182.2z"/>
	<path class="st0" d="M449.5,150c-4.3-3.1-7-8.5-8.1-16.1c-0.9-6.5-0.6-13.8,0.8-21.9c1.5-8.1,4.6-15.4,9.6-21.9
		c4.9-6.5,11.8-10.3,20.6-11.5c10.3-1.4,16.1,2.4,17.3,11.4c0.7,5.2-0.1,10.3-2.5,15.1s-5.9,8.9-10.5,12.3s-9.7,5.6-15.2,6.8
		c0.1,2.1,0.2,3.5,0.3,4.3c1.1,7.8,4.5,11.3,10.3,10.5c2.6-0.4,5.3-1.5,8.1-3.3c2.8-1.8,5.3-4,7.4-6.5c-0.6,14.2-7.8,22.3-21.4,24.2
		C459.4,154.1,453.8,153,449.5,150z M471.1,112.3c2.8-2.7,5-5.9,6.4-9.7s1.9-7.6,1.4-11.4s-2-5.6-4.3-5.3c-3.3,0.5-6.1,3.9-8.5,10.3
		s-3.9,13.4-4.5,21C465.1,116.6,468.3,114.9,471.1,112.3z"/>
</g>
<path class="st0" d="M168.3,206c-15.6,18.5-30.9,27.1-42.1,31.6c-12.5,5-40.6,12.9-66.5,15c-1.5,0.1-12.1,0.9-23.8,6.6
	c-10.7,5.2-13.8,10.4-15,12.7c-0.8,1.6-5.3,10.6-0.6,16.1c2.9,3.3,8.6,5.5,11.1,3.3c2-1.8,1.9-6.2,0-7.8c-2.3-1.8-6.4,1.2-7.2,0
	c-0.9-1.2,2.1-6.3,6.6-7.8c5.6-1.8,13.7,2,15,8.3c1.4,6.7-5.8,12.1-10.5,13.9c-7.2,2.7-15-0.5-19.4-5c-4.8-4.8-5.4-10.9-5.5-12.7
	c-1.3-14.3,11.8-25.2,12.7-26c15.1-12.3,36.3-9,36.6-13.9c0.1-1.3-1.5-1.6-5-6.1c-3.1-4-6-7.8-5-10c1.4-3.1,10.6-3.3,18.3-0.6
	c10.1,3.6,14.3,11.1,17.2,9.4c1.8-1,2-5.1,1.1-7.8c-1.3-4-4.8-5-4.4-6.6c0.4-1.9,5.2-3.3,10-2.8c9.9,1,17.6,10,22.2,9.4
	c0.8-0.1,1.3-0.5,5.7-1.9c0.2-0.1,0.3-0.1,0.4-0.3c0.8-1.4-7.3-6-6.6-7.8c0.8-2.3,15.2,3.6,29.9,1.7
	C154.5,215.7,163,210.2,168.3,206z"/>
<path class="st0" d="M304.9,94.2c13.8-18.4,27.3-27,37.2-31.5c11-4.9,35.8-12.9,58.8-14.9c1.3-0.1,10.7-0.9,21.1-6.6
	c9.5-5.2,12.2-10.4,13.2-12.7c0.7-1.6,4.6-10.6,0.5-16c-2.6-3.3-7.6-5.5-9.8-3.3c-1.8,1.7-1.7,6.2,0,7.7c2,1.8,5.6-1.2,6.4,0
	s-1.9,6.3-5.9,7.7c-4.9,1.8-12.1-2-13.2-8.3c-1.2-6.7,5.1-12,9.3-13.8c6.4-2.7,13.2,0.5,17.1,5c4.2,4.8,4.8,10.9,4.9,12.7
	c1.1,14.3-10.4,25.2-11.3,26c-13.3,12.3-32.1,9-32.3,13.8c-0.1,1.3,1.3,1.6,4.4,6.1c2.7,4,5.3,7.7,4.4,9.9
	c-1.2,3.1-9.4,3.3-16.2,0.6c-8.9-3.6-12.6-11.1-15.2-9.4c-1.6,1-1.8,5-1,7.7c1.1,3.9,4.2,4.9,3.9,6.6c-0.3,1.9-4.6,3.3-8.8,2.8
	c-8.7-1-15.6-10-19.6-9.4c-0.7,0.1-1.2,0.5-5,1.9c-0.1,0.1-0.3,0.1-0.4,0.3c-0.7,1.4,6.4,6,5.9,7.7c-0.7,2.3-13.4-3.5-26.4-1.7
	C317.1,84.5,309.6,90,304.9,94.2z"/>
</svg>
