<?xml version="1.0" encoding="utf-8"?>
<!-- Generator: Adobe Illustrator 23.0.4, SVG Export Plug-In . SVG Version: 6.00 Build 0)  -->
<svg version="1.1" id="Layer_1" xmlns="http://www.w3.org/2000/svg" xmlns:xlink="http://www.w3.org/1999/xlink" x="0px" y="0px"
	 viewBox="0 0 700 350" style="enable-background:new 0 0 700 350;" xml:space="preserve">
<style type="text/css">
	.st0{fill:#FFFFFF;stroke:#000000;stroke-width:5;stroke-miterlimit:10;}
	.st1{fill:#35B7FF;stroke:#000000;stroke-width:5;stroke-miterlimit:10;}
	.st2{fill:#CBCBCB;stroke:#000000;stroke-width:4;stroke-miterlimit:10;}
	.st3{fill:#FFFFFF;stroke:#000000;stroke-width:4;stroke-miterlimit:10;}
	.st4{fill:#35B7FF;stroke:#FFFFFF;stroke-width:5;stroke-linecap:round;stroke-linejoin:round;stroke-miterlimit:10;}
	.st5{fill:#C63303;}
	.st6{fill:#064066;}
	.st7{fill:#00233F;}
	.st8{fill:none;stroke:#29ABE2;stroke-width:7;stroke-linecap:round;stroke-linejoin:round;stroke-miterlimit:10;}
	.st9{fill:#031B2C;}
	.st10{fill:#B2CCCA;}
	.st11{fill:none;stroke:#000000;stroke-width:5;stroke-miterlimit:10;}
	.st12{fill:#FF3816;}
	.st13{fill:none;stroke:#FFFFFF;stroke-width:7;stroke-linecap:round;stroke-linejoin:round;stroke-miterlimit:10;}
	.st14{fill:#3F4A4C;}
	.st15{fill:#707070;}
	.st16{fill:#F9F1D8;stroke:#000000;stroke-width:4;stroke-miterlimit:10;}
	.st17{fill:#F9F1D8;}
	.st18{fill:#AEAEAE;stroke:#000000;stroke-width:4;stroke-miterlimit:10;}
	.st19{fill:#DF5754;stroke:#000000;stroke-width:4;stroke-miterlimit:10;}
	.st20{fill:#FF6A8C;stroke:#FF6A8C;stroke-width:5;stroke-miterlimit:10;}
	.st21{fill:#DF5754;stroke:#DF5754;stroke-width:5;stroke-miterlimit:10;}
	.st22{fill:#F5AC60;stroke:#F5AC60;stroke-width:5;stroke-miterlimit:10;}
	.st23{fill:#F8EF7A;stroke:#F8EF7A;stroke-width:5;stroke-miterlimit:10;}
	.st24{fill:#5EDB76;stroke:#5EDB76;stroke-width:5;stroke-miterlimit:10;}
	.st25{fill:#70B8E0;stroke:#70B8E0;stroke-width:5;stroke-miterlimit:10;}
	.st26{fill:#707070;stroke:#000000;stroke-width:4;stroke-miterlimit:10;}
	.st27{fill:none;stroke:#FFFFFF;stroke-width:3;stroke-linecap:round;stroke-linejoin:round;stroke-miterlimit:10;}
	.st28{fill:none;stroke:#000000;stroke-width:4;stroke-linecap:round;stroke-linejoin:round;stroke-miterlimit:10;}
</style>
<g>
	<path class="st0" d="M419.69,344.97H249.02c-8.29,0-15.02-6.72-15.02-15.02V35.76c0-8.29,6.72-15.02,15.02-15.02h170.67
		c8.29,0,15.02,6.72,15.02,15.02v294.2C434.71,338.25,427.98,344.97,419.69,344.97z"/>
	<path class="st1" d="M400.07,162.92H268.64c-8.29,0-15.02-6.72-15.02-15.02V58.68c0-8.29,6.72-15.02,15.02-15.02h131.43
		c8.29,0,15.02,6.72,15.02,15.02v89.23C415.09,156.2,408.36,162.92,400.07,162.92z"/>
	<circle class="st0" cx="334.35" cy="251.89" r="55"/>
	<circle class="st2" cx="334.35" cy="251.89" r="15.88"/>
	<g>
		<path class="st3" d="M473.87,84.62v25.21c0,4.91,3.98,8.88,8.88,8.88s8.88-3.98,8.88-8.88V84.62H473.87z"/>
		<circle class="st3" cx="482.76" cy="66.03" r="21.25"/>
	</g>
	<g>
		<path class="st3" d="M526.44,43.85v25.21c0,4.91,3.98,8.88,8.88,8.88c4.91,0,8.88-3.98,8.88-8.88V43.85H526.44z"/>
		<circle class="st3" cx="535.32" cy="25.25" r="21.25"/>
	</g>
	<path class="st4" d="M326.46,55.75h-44.63c-8.6,0-15.57,6.97-15.57,15.57v9.4"/>
</g>
<g>
	<path class="st5" d="M26.72,192.91h-7.81c-1.05,0-1.91-0.85-1.91-1.91v-40.74c0-1.05,0.85-1.91,1.91-1.91h7.81
		c1.05,0,1.91,0.85,1.91,1.91V191C28.62,192.05,27.77,192.91,26.72,192.91z"/>
	<path class="st5" d="M26.72,246.19h-7.81c-1.05,0-1.91-0.85-1.91-1.91v-40.74c0-1.05,0.85-1.91,1.91-1.91h7.81
		c1.05,0,1.91,0.85,1.91,1.91v40.74C28.62,245.33,27.77,246.19,26.72,246.19z"/>
	<path class="st5" d="M26.72,299.47h-7.81c-1.05,0-1.91-0.85-1.91-1.91v-40.74c0-1.05,0.85-1.91,1.91-1.91h7.81
		c1.05,0,1.91,0.85,1.91,1.91v40.74C28.62,298.61,27.77,299.47,26.72,299.47z"/>
	<path class="st6" d="M41.22,85.37h25.61L181.69,296.3v14.79c0,6.39-5.23,11.62-11.62,11.62H41.22c-6.39,0-11.62-5.23-11.62-11.62
		V97C29.59,90.61,34.82,85.37,41.22,85.37z"/>
	<path class="st7" d="M170.55,321.26h-25.61L30.08,110.34V95.55c0-6.39,5.23-11.62,11.62-11.62h128.84
		c6.39,0,11.62,5.23,11.62,11.62v214.09C182.17,316.03,176.94,321.26,170.55,321.26z"/>
	<g>
		<line class="st8" x1="139.55" y1="281.55" x2="139.55" y2="308.67"/>
		<line class="st8" x1="154.08" y1="281.55" x2="154.08" y2="308.67"/>
		<line class="st8" x1="168.61" y1="281.55" x2="168.61" y2="308.67"/>
	</g>
	<path class="st9" d="M179.89,264.59H81.16c-6.07,0-11-4.92-11-11V86.32c0-0.99,0.81-1.8,1.8-1.8h99.83c5.47,0,9.9,4.43,9.9,9.9
		v168.38C181.69,263.79,180.88,264.59,179.89,264.59z"/>
	<path class="st10" d="M179.89,257.43H81.16c-6.07,0-11-4.92-11-11V84.27c0-0.99,0.81-1.8,1.8-1.8h99.83c5.47,0,9.9,4.43,9.9,9.9
		v163.26C181.69,256.62,180.88,257.43,179.89,257.43z"/>
	<path class="st11" d="M169.69,321.75H41.59c-6.6,0-12-5.4-12-12V96.41c0-6.6,5.4-12,12-12h128.09c6.6,0,12,5.4,12,12v213.34
		C181.69,316.35,176.29,321.75,169.69,321.75z"/>
	<g>
		<path class="st5" d="M162.52,251.29h-73.2c-6.6,0-12-5.4-12-12V100.61c0-6.6,5.4-12,12-12h73.2c6.6,0,12,5.4,12,12v138.68
			C174.52,245.89,169.12,251.29,162.52,251.29z"/>
		<path class="st12" d="M162.52,251.29H97.51c-6.6,0-12-5.4-12-12V100.61c0-6.6,5.4-12,12-12h65.02c6.6,0,12,5.4,12,12v138.68
			C174.52,245.89,169.12,251.29,162.52,251.29z"/>
	</g>
	<line class="st13" x1="128.57" y1="158.52" x2="128.57" y2="183.7"/>
	<circle class="st14" cx="128.57" cy="126.06" r="7.75"/>
	<circle class="st14" cx="128.57" cy="216.16" r="7.75"/>
</g>
<path class="st15" d="M632.38,160.99h-96.77v-0.73c0-6.6,5.4-12,12-12h72.77c6.6,0,12,5.4,12,12V160.99z"/>
<path class="st16" d="M667.24,250.07h-166.5v-78.14c0-6.6,5.4-12,12-12h142.5c6.6,0,12,5.4,12,12V250.07z"/>
<path class="st17" d="M681.56,289.84H486.43v-32.76c0-3.58,2.9-6.48,6.48-6.48h182.51c3.39,0,6.14,2.75,6.14,6.14V289.84z"/>
<path class="st18" d="M656.97,184.85h-25.2c-2.12,0-3.84-1.72-3.84-3.84v-3.99c0-2.12,1.72-3.84,3.84-3.84h25.2
	c2.12,0,3.84,1.72,3.84,3.84v3.99C660.81,183.13,659.09,184.85,656.97,184.85z"/>
<circle class="st19" cx="530.89" cy="228.86" r="12.2"/>
<g>
	<line class="st20" x1="573.39" y1="224.09" x2="573.39" y2="286.66"/>
	<line class="st21" x1="577.63" y1="224.09" x2="577.63" y2="286.66"/>
	<line class="st22" x1="581.87" y1="224.09" x2="581.87" y2="286.66"/>
	<line class="st23" x1="586.11" y1="224.09" x2="586.11" y2="286.66"/>
	<line class="st24" x1="590.36" y1="224.09" x2="590.36" y2="286.66"/>
	<line class="st25" x1="594.6" y1="224.09" x2="594.6" y2="286.66"/>
</g>
<g>
	<circle class="st18" cx="583.99" cy="202.61" r="31.82"/>
	<circle class="st26" cx="583.99" cy="202.61" r="21.74"/>
</g>
<path class="st15" d="M675.12,322.72H492.87c-3.56,0-6.45-2.89-6.45-6.45v-32.79h195.14v32.8
	C681.56,319.84,678.68,322.72,675.12,322.72z"/>
<rect x="514.53" y="290.64" class="st18" width="138.93" height="13.79"/>
<line class="st27" x1="524.07" y1="297.53" x2="643.91" y2="297.53"/>
<path class="st28" d="M674.42,322.19H493.57c-3.93,0-7.14-3.21-7.14-7.14v-57.83c0-3.93,3.21-7.14,7.14-7.14h180.86
	c3.93,0,7.14,3.21,7.14,7.14v57.83C681.56,318.97,678.35,322.19,674.42,322.19z"/>
</svg>
