<?xml version="1.0" encoding="utf-8"?>
<!-- Generator: Adobe Illustrator 23.0.4, SVG Export Plug-In . SVG Version: 6.00 Build 0)  -->
<svg version="1.1" id="Layer_1" xmlns="http://www.w3.org/2000/svg" xmlns:xlink="http://www.w3.org/1999/xlink" x="0px" y="0px"
	 viewBox="0 0 720 480" style="enable-background:new 0 0 720 480;" xml:space="preserve">
<style type="text/css">
	.st0{fill:#FFFFFF;stroke:#000000;stroke-width:5;stroke-miterlimit:10;}
	.st1{fill:#35B7FF;stroke:#000000;stroke-width:5;stroke-miterlimit:10;}
	.st2{fill:#CBCBCB;stroke:#000000;stroke-width:4;stroke-miterlimit:10;}
	.st3{fill:#FFFFFF;stroke:#000000;stroke-width:4;stroke-miterlimit:10;}
	.st4{fill:#35B7FF;stroke:#FFFFFF;stroke-width:5;stroke-linecap:round;stroke-linejoin:round;stroke-miterlimit:10;}
	.st5{fill:#C63303;}
	.st6{fill:#064066;}
	.st7{fill:#00233F;}
	.st8{fill:none;stroke:#29ABE2;stroke-width:7;stroke-linecap:round;stroke-linejoin:round;stroke-miterlimit:10;}
	.st9{fill:#031B2C;}
	.st10{fill:#B2CCCA;}
	.st11{fill:none;stroke:#000000;stroke-width:5;stroke-miterlimit:10;}
	.st12{fill:#FF3816;}
	.st13{fill:none;stroke:#FFFFFF;stroke-width:7;stroke-linecap:round;stroke-linejoin:round;stroke-miterlimit:10;}
	.st14{fill:#3F4A4C;}
	.st15{fill:#707070;}
	.st16{fill:#F9F1D8;stroke:#000000;stroke-width:4;stroke-miterlimit:10;}
	.st17{fill:#F9F1D8;}
	.st18{fill:#AEAEAE;stroke:#000000;stroke-width:4;stroke-miterlimit:10;}
	.st19{fill:#DF5754;stroke:#000000;stroke-width:4;stroke-miterlimit:10;}
	.st20{fill:#FF6A8C;stroke:#FF6A8C;stroke-width:5;stroke-miterlimit:10;}
	.st21{fill:#DF5754;stroke:#DF5754;stroke-width:5;stroke-miterlimit:10;}
	.st22{fill:#F5AC60;stroke:#F5AC60;stroke-width:5;stroke-miterlimit:10;}
	.st23{fill:#F8EF7A;stroke:#F8EF7A;stroke-width:5;stroke-miterlimit:10;}
	.st24{fill:#5EDB76;stroke:#5EDB76;stroke-width:5;stroke-miterlimit:10;}
	.st25{fill:#70B8E0;stroke:#70B8E0;stroke-width:5;stroke-miterlimit:10;}
	.st26{fill:#707070;stroke:#000000;stroke-width:4;stroke-miterlimit:10;}
	.st27{fill:none;stroke:#FFFFFF;stroke-width:3;stroke-linecap:round;stroke-linejoin:round;stroke-miterlimit:10;}
	.st28{fill:none;stroke:#000000;stroke-width:4;stroke-linecap:round;stroke-linejoin:round;stroke-miterlimit:10;}
</style>
<text transform="matrix(1 0 0 1 471.2197 -354.1001)" style="display:none; font-family:'MyriadPro-Regular'; font-size:12px;">Lorem ipsum</text>
<g>
	<path class="st0" d="M432.17,428.97H255.02c-8.29,0-15.02-6.72-15.02-15.02V109.3c0-8.29,6.72-15.02,15.02-15.02h177.15
		c8.29,0,15.02,6.72,15.02,15.02v304.66C447.18,422.25,440.46,428.97,432.17,428.97z"/>
	<path class="st1" d="M411.91,241.05H275.27c-8.29,0-15.02-6.72-15.02-15.02v-93.08c0-8.29,6.72-15.02,15.02-15.02h136.64
		c8.29,0,15.02,6.72,15.02,15.02v93.08C426.93,234.33,420.2,241.05,411.91,241.05z"/>
	<circle class="st0" cx="343.59" cy="332.89" r="56.78"/>
	<circle class="st2" cx="343.59" cy="332.89" r="16.39"/>
	<g>
		<path class="st3" d="M487.61,160.22v26.02c0,5.06,4.11,9.17,9.17,9.17s9.17-4.11,9.17-9.17v-26.02H487.61z"/>
		<circle class="st3" cx="496.78" cy="141.03" r="21.94"/>
	</g>
	<g>
		<path class="st3" d="M541.87,118.13v26.02c0,5.06,4.11,9.17,9.17,9.17c5.06,0,9.17-4.11,9.17-9.17v-26.02H541.87z"/>
		<circle class="st3" cx="551.04" cy="98.94" r="21.94"/>
	</g>
	<path class="st4" d="M335.44,130.42h-46.07c-8.88,0-16.07,7.2-16.07,16.07v9.71"/>
</g>
<g>
	<path class="st5" d="M26.09,272h-8.18c-1.05,0-1.91-0.85-1.91-1.91v-42.18c0-1.05,0.85-1.91,1.91-1.91h8.18
		c1.05,0,1.91,0.85,1.91,1.91v42.18C28,271.15,27.15,272,26.09,272z"/>
	<path class="st5" d="M26.09,327h-8.18c-1.05,0-1.91-0.85-1.91-1.91v-42.18c0-1.05,0.85-1.91,1.91-1.91h8.18
		c1.05,0,1.91,0.85,1.91,1.91v42.18C28,326.15,27.15,327,26.09,327z"/>
	<path class="st5" d="M26.09,382h-8.18c-1.05,0-1.91-0.85-1.91-1.91v-42.18c0-1.05,0.85-1.91,1.91-1.91h8.18
		c1.05,0,1.91,0.85,1.91,1.91v42.18C28,381.15,27.15,382,26.09,382z"/>
	<path class="st6" d="M41,161h26.44L186,378.73V394c0,6.6-5.4,12-12,12H41c-6.6,0-12-5.4-12-12V173C29,166.4,34.4,161,41,161z"/>
	<path class="st7" d="M174.5,404.5h-26.44L29.5,186.77V171.5c0-6.6,5.4-12,12-12h133c6.6,0,12,5.4,12,12v221
		C186.5,399.1,181.1,404.5,174.5,404.5z"/>
	<g>
		<line class="st8" x1="142.5" y1="363.5" x2="142.5" y2="391.5"/>
		<line class="st8" x1="157.5" y1="363.5" x2="157.5" y2="391.5"/>
		<line class="st8" x1="172.5" y1="363.5" x2="172.5" y2="391.5"/>
	</g>
	<path class="st9" d="M184.2,346H81.87c-6.07,0-11-4.92-11-11V161.91c0-0.99,0.81-1.8,1.8-1.8H176.1c5.47,0,9.9,4.43,9.9,9.9V344.2
		C186,345.19,185.19,346,184.2,346z"/>
	<path class="st10" d="M184.2,338.61H81.87c-6.07,0-11-4.92-11-11V159.8c0-0.99,0.81-1.8,1.8-1.8H176.1c5.47,0,9.9,4.43,9.9,9.9
		v168.91C186,337.8,185.19,338.61,184.2,338.61z"/>
	<path class="st11" d="M174,405H41c-6.6,0-12-5.4-12-12V172c0-6.6,5.4-12,12-12h133c6.6,0,12,5.4,12,12v221
		C186,399.6,180.6,405,174,405z"/>
	<g>
		<path class="st5" d="M166.61,332.27H90.27c-6.6,0-12-5.4-12-12V176.34c0-6.6,5.4-12,12-12h76.34c6.6,0,12,5.4,12,12v143.93
			C178.61,326.87,173.21,332.27,166.61,332.27z"/>
		<path class="st12" d="M166.61,332.27H98.72c-6.6,0-12-5.4-12-12V176.34c0-6.6,5.4-12,12-12h67.89c6.6,0,12,5.4,12,12v143.93
			C178.61,326.87,173.21,332.27,166.61,332.27z"/>
	</g>
	<line class="st13" x1="131.17" y1="236.5" x2="131.17" y2="262.5"/>
	<circle class="st14" cx="131.17" cy="203" r="8"/>
	<circle class="st14" cx="131.17" cy="296" r="8"/>
</g>
<path class="st15" d="M651.23,239.05h-99.89v-1.14c0-6.6,5.4-12,12-12h75.89c6.6,0,12,5.4,12,12V239.05z"/>
<path class="st16" d="M687.22,331.01H515.35v-81.05c0-6.6,5.4-12,12-12h147.87c6.6,0,12,5.4,12,12V331.01z"/>
<path class="st17" d="M702,372.06H500.57v-34.03c0-3.58,2.9-6.48,6.48-6.48h188.81c3.39,0,6.14,2.75,6.14,6.14V372.06z"/>
<path class="st18" d="M676.74,263.68h-26.26c-2.12,0-3.84-1.72-3.84-3.84v-4.37c0-2.12,1.72-3.84,3.84-3.84h26.26
	c2.12,0,3.84,1.72,3.84,3.84v4.37C680.58,261.97,678.86,263.68,676.74,263.68z"/>
<circle class="st19" cx="546.47" cy="309.12" r="12.59"/>
<g>
	<line class="st20" x1="590.34" y1="304.19" x2="590.34" y2="368.78"/>
	<line class="st21" x1="594.72" y1="304.19" x2="594.72" y2="368.78"/>
	<line class="st22" x1="599.1" y1="304.19" x2="599.1" y2="368.78"/>
	<line class="st23" x1="603.47" y1="304.19" x2="603.47" y2="368.78"/>
	<line class="st24" x1="607.85" y1="304.19" x2="607.85" y2="368.78"/>
	<line class="st25" x1="612.23" y1="304.19" x2="612.23" y2="368.78"/>
</g>
<g>
	<circle class="st18" cx="601.28" cy="282.02" r="32.84"/>
	<circle class="st26" cx="601.28" cy="282.02" r="22.44"/>
</g>
<path class="st15" d="M695.56,406H507.02c-3.56,0-6.45-2.89-6.45-6.45v-34.06H702v34.07C702,403.12,699.12,406,695.56,406z"/>
<rect x="529.58" y="372.88" class="st18" width="143.41" height="14.23"/>
<line class="st27" x1="539.43" y1="380" x2="663.14" y2="380"/>
<path class="st28" d="M694.86,405.45H507.71c-3.93,0-7.14-3.21-7.14-7.14v-60.16c0-3.93,3.21-7.14,7.14-7.14h187.15
	c3.93,0,7.14,3.21,7.14,7.14v60.16C702,402.24,698.79,405.45,694.86,405.45z"/>
</svg>
